<svg xmlns="http://www.w3.org/2000/svg" viewBox="0 0 511.998 511.998">
  <path fill="#ffaf46"
    d="M27.928 353.128 58.986 408.8c24.247 41.997 71.614 65.169 127.883 68.494l-38.075-60.386c-52.432-4.068-96.577-25.663-120.866-63.78zm427.384-245.569c42.201 81.171-15.346 198.772-131.088 265.408a310.933 310.933 0 0 1-175.395 43.941l38.075 60.403a312.887 312.887 0 0 0 171.457-44.461l-34.102-59.073 34.102 59.073A313.079 313.079 0 0 0 482.39 306.962l-35.705-56.601 35.705 56.601c25.466-50.565 29.14-103.295 4.834-145.403l-31.912-54zM246.164 409.021l29.839 51.69-29.839-51.69zm144.422-85.426 33.079 51.835-33.079-51.835z"
    data-original="#ffaf46" />
  <path fill="#ffaf46"
    d="m148.828 416.907-2.072-3.282 2.072 3.282a310.902 310.902 0 0 0 175.43-43.941c115.777-66.635 173.29-184.236 131.088-265.408l-3.206-5.371 3.172 5.371c-.853-1.603-1.628-3.223-2.558-4.791-47.052-81.274-180.911-92.076-299.007-24.119s-175.574 188.935-128.513 270.2c.853 1.466 1.79 2.865 2.694 4.263l-2.063-3.683 2.063 3.7c24.289 38.117 68.434 59.712 120.9 63.779zm21.97-308.897c99.919-57.547 215.542-52.21 252.5 11.637s-16.207 166.41-116.092 223.957-215.568 52.21-252.526-11.637S70.914 165.558 170.798 108.01z"
    data-original="#ffaf46" />
  <path fill="#ffaf46"
    d="M307.207 343.605c99.91-57.548 153.093-160.101 116.143-223.957s-152.607-69.185-252.551-11.637-153.068 160.1-116.118 223.956 152.581 69.176 252.526 11.638zM167.985 188.363l14.212-8.21c.537-.315-12.251-22.465-12.251-22.465s12.788 22.166 12.234 22.465l30.087-17.366-12.788-22.166 12.788 22.166 14.766-8.526c16.369-9.31 37.188-3.581 46.498 12.788 9.225 16.216 3.7 36.839-12.396 46.277l14.766-8.526c16.369-9.31 37.188-3.581 46.498 12.788 9.225 16.216 3.7 36.839-12.396 46.277l-29.532 17.051 12.788 22.166-12.788-22.166-29.532 17.051 12.788 22.166-12.788-22.166-14.766 8.526-22.166 12.788 22.166-12.788-34.102-59.065-34.102-59.065-22.166 12.788 22.182-12.788z"
    data-original="#ffaf46" />
  <path fill="#ffaf46"
    d="M261.169 213.326c16.25-9.523 21.697-30.419 12.174-46.669-9.438-16.096-30.052-21.621-46.277-12.396l-14.766 8.526-30.087 17.366-14.212 8.21 34.102 59.065 59.066-34.102z"
    data-original="#ffaf46" />
  <path fill="#ffaf46"
    d="m236.189 306.493 14.766-8.526 29.532-17.051 29.532-17.051c16.25-9.523 21.697-30.419 12.174-46.669-9.438-16.096-30.052-21.621-46.277-12.396l-14.766 8.526-59.065 34.102 34.104 59.065z"
    data-original="#ffaf46" />
  <path fill="#231f20"
    d="M167.064 392.055a213.188 213.188 0 0 1-24.136-1.347c-4.681-.537-8.04-4.774-7.502-9.446.537-4.68 4.774-8.04 9.455-7.502a198.975 198.975 0 0 0 32.661.989c4.706-.239 8.713 3.393 8.952 8.099.239 4.706-3.393 8.713-8.099 8.952-3.82.17-7.597.255-11.331.255zm44.725-4.263a8.523 8.523 0 0 1-8.508-8.543 8.525 8.525 0 0 1 6.957-8.364 278.77 278.77 0 0 0 32.082-8.005c4.493-1.415 9.284 1.083 10.7 5.576 1.415 4.493-1.083 9.284-5.584 10.7a296.448 296.448 0 0 1-34.059 8.526 8.33 8.33 0 0 1-1.588.11zm-101.13-4.305a8.514 8.514 0 0 1-2.737-.452 125.66 125.66 0 0 1-32.61-16.369c-3.794-2.788-4.621-8.116-1.833-11.919 2.728-3.726 7.929-4.595 11.723-1.969a108.783 108.783 0 0 0 28.134 14.093c4.467 1.5 6.872 6.334 5.371 10.793a8.53 8.53 0 0 1-8.116 5.814l.068.009zm166.12-15.943a8.534 8.534 0 0 1-8.517-8.534 8.512 8.512 0 0 1 5.107-7.801 307.52 307.52 0 0 0 29.575-14.996 278.661 278.661 0 0 0 12.567-7.673 8.535 8.535 0 0 1 11.825 2.37 8.535 8.535 0 0 1-2.37 11.825c-.077.051-.162.102-.239.153a359.317 359.317 0 0 1-13.266 8.074 329.001 329.001 0 0 1-31.229 15.815 8.672 8.672 0 0 1-3.453.767zM56.761 343.877a8.5 8.5 0 0 1-7.178-3.905 87.991 87.991 0 0 1-2.285-3.751 95.255 95.255 0 0 1-11.203-30.931c-.827-4.638 2.251-9.071 6.889-9.898s9.071 2.251 9.898 6.889a77.766 77.766 0 0 0 9.199 25.415 72.39 72.39 0 0 0 1.859 3.044c2.549 3.956 1.398 9.233-2.558 11.782a8.47 8.47 0 0 1-4.604 1.356h-.017zm291.002-19.523c-4.706 0-8.526-3.811-8.534-8.517a8.52 8.52 0 0 1 3.172-6.641 288.66 288.66 0 0 0 24.545-22.226c3.436-3.223 8.824-3.052 12.055.375a8.521 8.521 0 0 1 .102 11.561 307.365 307.365 0 0 1-25.986 23.53 8.522 8.522 0 0 1-5.354 1.918zM44.075 278.359c-.384 0-.776-.026-1.159-.077-4.663-.639-7.929-4.945-7.281-9.608v-.009a157.372 157.372 0 0 1 9.156-34.784c1.773-4.365 6.752-6.454 11.109-4.68 4.237 1.722 6.36 6.488 4.808 10.785a140.385 140.385 0 0 0-8.184 31.016 8.533 8.533 0 0 1-8.449 7.357zm351.294-2.617c-4.706.026-8.543-3.777-8.568-8.483a8.515 8.515 0 0 1 1.748-5.209 224.67 224.67 0 0 0 17.989-27.452 8.527 8.527 0 0 1 15.047 8.022c-.043.077-.077.145-.119.213a241.593 241.593 0 0 1-19.353 29.549 8.523 8.523 0 0 1-6.744 3.36zm32.457-59.679a8.478 8.478 0 0 1-2.686-.435c-4.467-1.483-6.889-6.317-5.397-10.785a130.86 130.86 0 0 0 6.513-31.255c.426-4.689 4.578-8.142 9.267-7.716 4.595.418 8.022 4.408 7.733 9.011a147.993 147.993 0 0 1-7.34 35.338 8.52 8.52 0 0 1-8.091 5.874l.001-.032zm-360.11-1.185a8.534 8.534 0 0 1-8.517-8.534c0-1.535.418-3.044 1.211-4.365a251.448 251.448 0 0 1 20.257-28.884 8.519 8.519 0 0 1 11.953-1.56 8.519 8.519 0 0 1 1.56 11.953 8.118 8.118 0 0 1-.273.332 234.357 234.357 0 0 0-18.867 26.907 8.496 8.496 0 0 1-7.324 4.151zm42.628-53.012c-4.706-.009-8.526-3.828-8.517-8.534a8.5 8.5 0 0 1 2.6-6.121 313.711 313.711 0 0 1 26.566-22.857c3.777-2.805 9.122-2.012 11.927 1.765 2.745 3.692 2.055 8.892-1.543 11.757a292.894 292.894 0 0 0-25.142 21.604 8.535 8.535 0 0 1-5.891 2.386zm321.557-12.882a8.522 8.522 0 0 1-8.236-6.326 76.664 76.664 0 0 0-7.724-18.756 77.589 77.589 0 0 0-5.78-8.585c-2.975-3.649-2.421-9.02 1.228-11.995 3.649-2.975 9.02-2.421 11.995 1.228.077.094.153.196.23.298a93.257 93.257 0 0 1 16.531 33.394c1.211 4.553-1.492 9.225-6.036 10.435a8.354 8.354 0 0 1-2.208.29v.017zM164.319 120.39c-4.706 0-8.526-3.811-8.534-8.517a8.545 8.545 0 0 1 4.092-7.289 346.036 346.036 0 0 1 6.701-3.964 333.472 333.472 0 0 1 24.144-12.601c4.263-2.003 9.344-.171 11.339 4.084 2.004 4.263.171 9.344-4.084 11.347-7.733 3.632-15.431 7.673-22.9 11.936a242.616 242.616 0 0 0-6.334 3.751 8.474 8.474 0 0 1-4.424 1.253zm227.077-24.119a8.483 8.483 0 0 1-4.416-1.236 117.464 117.464 0 0 0-29.157-12.396c-4.544-1.219-7.247-5.9-6.028-10.444 1.219-4.544 5.9-7.247 10.444-6.028.068.017.136.034.205.06a134.862 134.862 0 0 1 33.429 14.229c4.024 2.438 5.311 7.681 2.865 11.714a8.52 8.52 0 0 1-7.298 4.101h-.044zM225.95 91.488c-4.706.009-8.534-3.802-8.543-8.508a8.523 8.523 0 0 1 5.789-8.091 299.651 299.651 0 0 1 33.812-9.378c4.629-.87 9.088 2.165 9.958 6.795.844 4.467-1.969 8.807-6.386 9.873a282.86 282.86 0 0 0-31.877 8.849 8.398 8.398 0 0 1-2.753.46zm66.542-14.127a8.523 8.523 0 0 1-8.858-8.193c-.188-4.706 3.478-8.679 8.185-8.858a229.208 229.208 0 0 1 35.398-.179c4.698.273 8.287 4.305 8.014 9.011-.273 4.698-4.305 8.287-9.011 8.014l-.29-.026a212.973 212.973 0 0 0-32.738.171c-.231.052-.479.06-.7.06zm37.393 135.658c-8.884-15.551-26.617-23.795-44.23-20.555 4.868-22.959-9.804-45.509-32.764-50.377a42.512 42.512 0 0 0-30.087 4.791l-7.383 4.263-8.526-14.766a8.528 8.528 0 0 0-14.826 8.432.35.35 0 0 0 .06.094l8.526 14.766-14.851 8.526c-2.004-3.615-4.723-8.372-8.44-14.809a8.528 8.528 0 0 0-14.826 8.432.35.35 0 0 0 .06.094 904.738 904.738 0 0 1 8.398 14.843l-29.405 16.974a8.528 8.528 0 0 0 8.432 14.826.35.35 0 0 0 .094-.06l14.766-8.526L224.56 303.33l-14.766 8.526a8.528 8.528 0 0 0 8.432 14.826c.034-.017.068-.034.102-.06l29.532-17.051 8.526 14.766c2.379 4.058 7.605 5.422 11.663 3.044a8.53 8.53 0 0 0 3.103-11.569l-8.526-14.766 14.766-8.526 8.526 14.766c2.379 4.058 7.605 5.422 11.663 3.044a8.53 8.53 0 0 0 3.103-11.569l-8.526-14.766 22.166-12.788c20.343-11.783 27.309-37.82 15.561-58.188zm-98.555-51.374c12.405-6.761 27.938-2.183 34.699 10.222 6.522 11.97 2.507 26.949-9.122 34.059l-51.716 29.839-25.577-44.333 51.716-29.787zm86.363 79.287a25.414 25.414 0 0 1-11.936 15.533L239.31 294.83l-25.577-44.333 10.572-6.104 41.127-23.701 14.766-8.526c12.226-7.076 27.87-2.899 34.946 9.327a25.605 25.605 0 0 1 2.566 19.438h-.017z"
    data-original="#231f20" />
  <path fill="#231f20"
    d="m494.564 157.22-32.636-55.228c-.622-1.151-1.125-2.362-1.782-3.495C410.8 13.292 271.468 1.066 149.527 71.266 77.299 112.836 23.767 176.487 6.299 241.537A144.008 144.008 0 0 0 17.86 353.119c.784 1.356 1.705 2.626 2.507 3.947l31.237 55.996c24.221 41.946 70.276 67.667 129.699 72.467 6.624.537 13.317.81 20.078.801a327.468 327.468 0 0 0 161.243-46.038C484.759 369.71 543.969 242.79 494.564 157.22zm-22.891 52.858a168.427 168.427 0 0 0 5.891-48.101l2.276 3.845c20.632 35.739 19.66 79.816 1.432 123.39l-24.869-39.413a215.856 215.856 0 0 0 15.27-39.721zM35.294 348.822l-1.986-3.547a7.235 7.235 0 0 0-.853-.989 127.422 127.422 0 0 1-9.642-98.342C39.088 185.183 89.644 125.403 158.01 86.04a311.461 311.461 0 0 1 152.752-43.582c58.766 0 108.726 21.467 133.723 63.149.085.315.188.622.315.921l2.37 4.007a128.339 128.339 0 0 1 8.022 95.136c-16.275 60.761-66.832 120.542-135.198 159.905-111.683 64.281-237.81 56.37-284.7-16.754zm31.135 55.825-3.052-5.431a187.177 187.177 0 0 0 80.259 25.474l26.642 42.252c-47.546-6.623-84.266-28.38-103.849-62.295zm125.206 64.18-27.086-42.977c1.049 0 2.08.094 3.137.094a295.772 295.772 0 0 0 72.825-9.659l25.841 44.767a268.608 268.608 0 0 1-74.717 7.775zm91.649-12.558-25.875-44.819a353.247 353.247 0 0 0 63.225-26.898l25.935 44.929a339.016 339.016 0 0 1-63.285 26.788zm78.12-35.227-25.943-44.947a357.193 357.193 0 0 0 53.319-39.456l27.452 43.011a340.462 340.462 0 0 1-54.828 41.392zm67.223-53.711-27.222-42.628a297.35 297.35 0 0 0 45.671-57.743l25.525 40.471a270.71 270.71 0 0 1-43.974 59.9z"
    data-original="#231f20" />
</svg>