<svg xmlns="http://www.w3.org/2000/svg" width="140" height="140" fill="none" viewBox="0 0 140 140"><path fill="#27632D" d="M112.427 27.5734C101.094 16.2412 86.0266 10 70 10C53.9734 10 38.9062 16.2412 27.5734 27.5734C16.2412 38.9062 10 53.9734 10 70C10 86.0266 16.2412 101.094 27.5734 112.427C38.9062 123.759 53.9734 130 70 130C86.0266 130 101.094 123.759 112.427 112.427C123.759 101.094 130 86.0266 130 70C130 53.9734 123.759 38.9062 112.427 27.5734ZM70 33.6719C75.8155 33.6719 80.5469 38.4032 80.5469 44.2188C80.5469 50.0343 75.8155 54.7656 70 54.7656C64.1845 54.7656 59.4531 50.0343 59.4531 44.2188C59.4531 38.4032 64.1845 33.6719 70 33.6719ZM85 103.984H54.5312V96.9531H59.4531V68.8281H54.7656V61.7969H80.5469V96.9531H85V103.984Z"/></svg>