<svg width="140" height="140" viewBox="0 0 140 140" fill="none" xmlns="http://www.w3.org/2000/svg">
<path d="M70 110.657C47.5463 110.657 29.344 92.4537 29.344 70C29.344 47.5463 47.5463 29.3434 70 29.3434C92.4548 29.3434 110.658 47.5463 110.658 70C110.658 92.4537 92.4548 110.657 70 110.657ZM118.985 81.6667L140 70L118.985 58.3333V81.6667ZM21.0146 58.3333L0 70L21.0146 81.6667V58.3333ZM70 140L81.6667 118.985H58.3333L70 140ZM70 0L58.3333 21.0146H81.6667L70 0ZM27.1139 96.3888L20.503 119.498L43.6123 112.888L27.1139 96.3888ZM96.3888 27.1116L112.887 43.6112L119.498 20.5036L96.3888 27.1116ZM20.503 20.503L27.1133 43.6112L43.6117 27.1116L20.503 20.503ZM96.3888 112.888L119.498 119.498L112.887 96.3888L96.3888 112.888Z" fill="#A43939"/>
</svg>
