<svg width="140" height="140" viewBox="0 0 140 140" fill="none" xmlns="http://www.w3.org/2000/svg">
<path d="M138.768 116.502L77.3456 14.6391C75.7933 12.0647 73.0062 10.4905 69.9997 10.4905C66.9933 10.4905 64.2062 12.0644 62.6538 14.6391L1.23213 116.502C-0.365296 119.152 -0.4126 122.456 1.10881 125.15C2.63021 127.844 5.48408 129.51 8.57775 129.51H131.422C134.516 129.51 137.37 127.844 138.891 125.15C140.412 122.456 140.365 119.152 138.768 116.502ZM70.0457 45.7262C73.5733 45.7262 76.5581 47.7163 76.5581 51.2436C76.5581 62.0069 75.2918 77.4742 75.2918 88.2375C75.2918 91.0416 72.2165 92.2171 70.0457 92.2171C67.1516 92.2171 64.7093 91.0413 64.7093 88.2375C64.7093 77.4742 63.4433 62.0069 63.4433 51.2436C63.4433 47.7163 66.3373 45.7262 70.0457 45.7262ZM70.1362 112.388C66.1566 112.388 63.1715 109.132 63.1715 105.423C63.1715 101.624 66.1563 98.4589 70.1362 98.4589C73.8445 98.4589 77.0104 101.624 77.0104 105.423C77.0104 109.132 73.8445 112.388 70.1362 112.388Z" fill="currentColor"/>
</svg>