<svg width="140" height="140" viewBox="0 0 140 140" fill="none" xmlns="http://www.w3.org/2000/svg">
  <circle cx="70" cy="70" r="26" fill="#A43939"/>
  <path d="M79.4441 35.9584L70 0L60.556 35.9584H79.4441Z" fill="#A43939"/>
  <path d="M87.3931 39.251L100.749 52.6069L119.497 20.5025L87.3931 39.251Z" fill="#A43939"/>
  <path d="M104.042 60.556L104.042 79.444L140 70L104.042 60.556Z" fill="#A43939"/>
  <path d="M100.749 87.3931L87.3931 100.749L119.497 119.497L100.749 87.3931Z" fill="#A43939"/>
  <path d="M79.444 104.042H60.556L70 140L79.444 104.042Z" fill="#A43939"/>
  <path d="M52.6069 100.749L39.251 87.3931L20.5025 119.497L52.6069 100.749Z" fill="#A43939"/>
  <path d="M35.9584 79.444V60.556L0 70L35.9584 79.444Z" fill="#A43939"/>
  <path d="M39.251 52.6069L52.6069 39.251L20.5025 20.5025L39.251 52.6069Z" fill="#A43939"/>
</svg>
